<svg width="99" height="80" viewBox="0 0 99 80" fill="none" xmlns="http://www.w3.org/2000/svg">
<path fill-rule="evenodd" clip-rule="evenodd" d="M69.3319 75.5946C73.0198 75.4168 76.6696 75.2733 80.3504 74.9882C81.1425 74.9297 81.7314 74.244 81.6709 73.4572C81.6124 72.6651 80.9214 72.074 80.1346 72.1345C76.474 72.4153 72.8551 72.5586 69.1927 72.7341C68.4016 72.7744 67.7932 73.4465 67.8303 74.2302C67.8707 75.0214 68.5407 75.635 69.3319 75.5946Z" fill="#1DA6B1"/>
<path fill-rule="evenodd" clip-rule="evenodd" d="M52.8279 49.9035C61.25 41.8299 69.2588 33.3357 77.5032 25.0877C78.0621 24.5255 78.0603 23.6202 77.5035 23.0634C76.9413 22.5044 76.0382 22.5009 75.4739 23.061C67.2465 31.2972 59.2548 39.7796 50.8465 47.834C50.2736 48.3845 50.2571 49.2888 50.8024 49.8596C51.353 50.4325 52.2571 50.4488 52.8279 49.9035Z" fill="black"/>
<path fill-rule="evenodd" clip-rule="evenodd" d="M14.7595 32.0163C16.8599 22.3796 18.694 12.6692 20.902 3.05632C21.0745 2.28715 20.594 1.52031 19.8269 1.34247C19.0545 1.16253 18.2855 1.64841 18.1077 2.4155C15.9008 12.0412 14.0626 21.7623 11.9633 31.4117C11.7961 32.1829 12.284 32.9466 13.0553 33.1138C13.8319 33.2831 14.5902 32.7929 14.7595 32.0163Z" fill="#1DA6B1"/>
</svg>
