<svg width="31" height="30" viewBox="0 0 31 30" fill="none" xmlns="http://www.w3.org/2000/svg">
<path d="M17.042 0.00184553C18.1366 -0.00235466 19.2311 0.00864614 20.3253 0.0348445L20.6163 0.0453441C20.9523 0.0573437 21.2838 0.0723432 21.6843 0.0903425C23.2802 0.16534 24.3691 0.417332 25.3246 0.787819C26.3145 1.16881 27.1485 1.68479 27.9825 2.51876C28.745 3.26814 29.3351 4.17462 29.7119 5.17517C30.0823 6.13064 30.3343 7.2211 30.4093 8.81705C30.4273 9.21603 30.4423 9.54902 30.4543 9.88501L30.4633 10.176C30.49 11.2698 30.5015 12.3638 30.4978 13.4579L30.4993 14.5769V16.5418C30.503 17.6364 30.4915 18.7309 30.4648 19.8252L30.4558 20.1162C30.4438 20.4522 30.4288 20.7836 30.4108 21.1841C30.3358 22.7801 30.0808 23.869 29.7119 24.8245C29.3364 25.8261 28.7461 26.7333 27.9825 27.4824C27.2324 28.2449 26.3255 28.835 25.3246 29.2119C24.3691 29.5823 23.2802 29.8343 21.6843 29.9093C21.2838 29.9273 20.9523 29.9423 20.6163 29.9543L20.3253 29.9633C19.2311 29.99 18.1366 30.0015 17.042 29.9978L15.9231 29.9993H13.9597C12.8651 30.003 11.7706 29.9915 10.6763 29.9648L10.3854 29.9558C10.0293 29.9429 9.6733 29.9279 9.31741 29.9108C7.72149 29.8358 6.63255 29.5808 5.6756 29.2119C4.67468 28.8359 3.76805 28.2456 3.01924 27.4824C2.25584 26.7329 1.66514 25.8258 1.28833 24.8245C0.917844 23.869 0.665857 22.7801 0.590861 21.1841C0.574156 20.8282 0.559157 20.4722 0.545863 20.1162L0.538364 19.8252C0.51071 18.7309 0.49821 17.6364 0.500865 16.5418V13.4579C0.496679 12.3638 0.50768 11.2698 0.533864 10.176L0.544363 9.88501C0.556363 9.54902 0.571362 9.21603 0.589361 8.81705C0.664357 7.2196 0.916344 6.13214 1.28682 5.17517C1.66386 4.17413 2.25572 3.2679 3.02074 2.52026C3.76904 1.75641 4.67509 1.16517 5.6756 0.787819C6.63255 0.417332 7.71999 0.16534 9.31741 0.0903425L10.3854 0.0453441L10.6763 0.0378446C11.7701 0.0102047 12.8641 -0.0022962 13.9582 0.00034569L17.042 0.00184553ZM15.5001 7.50159C14.5064 7.48754 13.5198 7.67112 12.5977 8.04167C11.6756 8.41223 10.8363 8.96236 10.1286 9.6601C9.42097 10.3578 8.85904 11.1893 8.47549 12.1061C8.09194 13.0229 7.89442 14.0068 7.89442 15.0006C7.89442 15.9944 8.09194 16.9783 8.47549 17.8951C8.85904 18.8119 9.42097 19.6433 10.1286 20.3411C10.8363 21.0388 11.6756 21.5889 12.5977 21.9595C13.5198 22.3301 14.5064 22.5136 15.5001 22.4996C17.4891 22.4996 19.3967 21.7094 20.8031 20.303C22.2096 18.8965 22.9997 16.9889 22.9997 14.9998C22.9997 13.0108 22.2096 11.1032 20.8031 9.69671C19.3967 8.29024 17.4891 7.50159 15.5001 7.50159ZM15.5001 10.5015C16.0978 10.4905 16.6918 10.5987 17.2472 10.8198C17.8026 11.0409 18.3085 11.3705 18.7351 11.7893C19.1617 12.2081 19.5007 12.7077 19.732 13.2589C19.9634 13.8102 20.0827 14.402 20.0828 14.9998C20.0829 15.5977 19.9638 16.1895 19.7326 16.7409C19.5014 17.2922 19.1627 17.7919 18.7362 18.2108C18.3097 18.6298 17.804 18.9595 17.2486 19.1808C16.6932 19.4021 16.0993 19.5105 15.5016 19.4997C14.3082 19.4997 13.1636 19.0256 12.3198 18.1817C11.4759 17.3378 11.0018 16.1933 11.0018 14.9998C11.0018 13.8064 11.4759 12.6618 12.3198 11.818C13.1636 10.9741 14.3082 10.5 15.5016 10.5L15.5001 10.5015ZM23.3747 5.25167C22.8908 5.27103 22.4332 5.47689 22.0977 5.8261C21.7621 6.17532 21.5748 6.64082 21.5748 7.1251C21.5748 7.60939 21.7621 8.07488 22.0977 8.4241C22.4332 8.77332 22.8908 8.97917 23.3747 8.99854C23.8719 8.99854 24.3488 8.801 24.7005 8.44938C25.0521 8.09776 25.2496 7.62087 25.2496 7.1236C25.2496 6.62634 25.0521 6.14944 24.7005 5.79782C24.3488 5.4462 23.8719 5.24867 23.3747 5.24867V5.25167Z" fill="#009CA8"/>
</svg>
