<svg width="154" height="200" viewBox="0 0 154 200" fill="none" xmlns="http://www.w3.org/2000/svg">
<path d="M134.735 199.221C133.246 200.106 131.146 198.21 131.868 196.594C132.108 196.079 132.312 195.559 132.528 195.032C132.391 194.773 132.307 194.49 132.28 194.199C132.254 193.908 132.286 193.615 132.375 193.338C132.626 192.323 132.876 191.308 133.127 190.293C117.464 188.604 102.75 181.678 91.3407 170.626C80.8751 160.387 71.6809 144.428 70.0851 128.726C58.219 125.842 47.2573 118.705 38.5127 110.24C25.1984 97.3627 13.7563 78.4691 18.7984 59.4118L18.91 59.025C16.5033 56.2972 14.3494 53.5924 12.5499 51.1968C1.75004 37.1192 -5.77685 16.7824 6.33764 1.33565C7.52338 -0.174692 9.99221 1.49399 8.83059 3.05929C-3.16354 19.2401 7.21429 39.13 18.4855 52.607L20.43 54.9164C26.0215 42.7746 40.003 34.6213 53.1904 40.8348C65.1117 46.4408 68.8272 65.3784 57.1418 73.0421C44.8534 81.0989 32.0845 72.6875 22.3954 62.749C21.2894 69.6956 22.0922 76.8386 24.7171 83.4072C31.8492 101.155 50.0166 119.152 69.8392 124.247C69.7783 120.017 70.4043 115.815 71.6924 111.806C76.3382 97.6273 96.1928 87.7766 106.333 103.043C116.619 118.526 96.0313 129.298 83.4375 129.974C80.6601 130.111 77.8728 129.99 75.111 129.612C75.6404 133.392 76.5277 137.118 77.7608 140.737C86.2795 165.673 108.722 182.776 133.884 185.52C134.163 182.998 134.268 180.458 134.199 177.917C134.19 177.664 134.236 177.412 134.333 177.18C134.169 176.876 134.107 176.528 134.155 176.188C134.203 175.848 134.359 175.534 134.6 175.293C134.842 175.053 135.154 174.898 135.492 174.852C135.83 174.806 136.175 174.872 136.476 175.04C140.37 177.282 144.196 179.625 148.015 182.042L148.274 182.105C148.877 182.242 149.405 182.614 149.742 183.138C150.835 183.828 151.929 184.524 153.023 185.225C154.415 186.13 154.016 187.987 152.778 188.706C146.763 192.22 140.74 195.704 134.735 199.221ZM37.8078 70.0484C45.7851 73.7017 57.2836 72.5767 59.8123 62.8096C63.7736 47.6085 46.8969 39.2388 34.7315 45.2041C32.054 46.5284 29.6764 48.387 27.7413 50.6683C25.8063 52.9496 24.3536 55.6068 23.4703 58.4804C27.6262 63.1314 32.259 67.5074 37.8078 70.0484ZM89.9332 124.597C96.927 122.831 107.199 116.77 103.83 107.883C101.312 101.246 93.5307 98.4112 87.2206 100.81C76.9221 104.687 74.1342 114.981 74.6758 125.288C79.7703 126.063 84.9536 125.829 89.9332 124.597Z" fill="#009CA8"/>
</svg>
