<svg width="33" height="26" viewBox="0 0 33 26" fill="none" xmlns="http://www.w3.org/2000/svg">
<path d="M32.5 3.44118C31.3222 3.95588 30.0526 4.29412 28.7371 4.45588C30.0832 3.67647 31.1233 2.44118 31.6128 0.955882C30.3432 1.69118 28.9359 2.20588 27.4522 2.5C26.2438 1.23529 24.5459 0.5 22.6185 0.5C19.0239 0.5 16.087 3.32353 16.087 6.80882C16.087 7.30882 16.1482 7.79412 16.2553 8.25C10.8098 7.98529 5.9608 5.47059 2.73327 1.66176C2.1673 2.58824 1.84608 3.67647 1.84608 4.82353C1.84608 7.01471 2.99331 8.95588 4.76769 10.0588C3.68164 10.0588 2.67208 9.76471 1.7849 9.32353V9.36765C1.7849 12.4265 4.04876 14.9853 7.04685 15.5588C6.08429 15.8121 5.07376 15.8473 4.09465 15.6618C4.51011 16.9154 5.32377 18.0124 6.42125 18.7984C7.51873 19.5845 8.84485 20.0201 10.2132 20.0441C7.8937 21.8095 5.01854 22.7637 2.06023 22.75C1.54015 22.75 1.02008 22.7206 0.5 22.6618C3.40631 24.4559 6.86329 25.5 10.565 25.5C22.6185 25.5 29.2419 15.8824 29.2419 7.54412C29.2419 7.26471 29.2419 7 29.2266 6.72059C30.5115 5.83823 31.6128 4.72059 32.5 3.44118Z" fill="#009CA8"/>
</svg>
