<svg width="31" height="20" viewBox="0 0 31 20" fill="none" xmlns="http://www.w3.org/2000/svg">
<path d="M12.5 14.2857L20.285 10L12.5 5.71429V14.2857ZM29.84 3.1C30.035 3.77143 30.17 4.67143 30.26 5.81429C30.365 6.95714 30.41 7.94286 30.41 8.8L30.5 10C30.5 13.1286 30.26 15.4286 29.84 16.9C29.465 18.1857 28.595 19.0143 27.245 19.3714C26.54 19.5571 25.25 19.6857 23.27 19.7714C21.32 19.8714 19.535 19.9143 17.885 19.9143L15.5 20C9.215 20 5.3 19.7714 3.755 19.3714C2.405 19.0143 1.535 18.1857 1.16 16.9C0.965 16.2286 0.83 15.3286 0.74 14.1857C0.635 13.0429 0.59 12.0571 0.59 11.2L0.5 10C0.5 6.87143 0.74 4.57143 1.16 3.1C1.535 1.81429 2.405 0.985714 3.755 0.628572C4.46 0.442857 5.75 0.314286 7.73 0.228571C9.68 0.128571 11.465 0.0857142 13.115 0.0857142L15.5 0C21.785 0 25.7 0.228572 27.245 0.628572C28.595 0.985714 29.465 1.81429 29.84 3.1Z" fill="#009CA8"/>
</svg>
