<svg width="18" height="18" viewBox="0 0 18 18" fill="none" xmlns="http://www.w3.org/2000/svg">
<path d="M15.6667 0.666626H5.66667C4.75 0.666626 4 1.41663 4 2.33329V12.3333C4 13.25 4.75 14 5.66667 14H15.6667C16.5833 14 17.3333 13.25 17.3333 12.3333V2.33329C17.3333 1.41663 16.5833 0.666626 15.6667 0.666626ZM9.39167 10.6666L6.5 7.74996L7.66667 6.57496L9.39167 8.30829L13.6667 3.99996L14.8333 5.17496L9.39167 10.6666ZM2.33333 3.99996H0.666668V15.6666C0.666668 16.5833 1.41667 17.3333 2.33333 17.3333H14V15.6666H2.33333V3.99996Z" fill="#009CA8"/>
</svg>
